# xmcd CD database file
#
# Track frame offsets:
#	150
#	17246
#	39195
#	56836
#	76560
#	95988
#	115674
#	130928
#	143554
#	165064
#	200774
#	226597
#	242403
#	257275
#	272764
#	303690
#	328941
#
# Disc length: 4601 seconds
#
# Revision: 0
# Processed by: cddbd v1.5.2PL0 Copyright (c) Steve Scherf et al.
# Submitted via: Feurio! 1.68 - http://www.feurio.com
#
DISCID=d711f711
DTITLE=JENNIFER WARNES - FIRST WE TAKE MANHATTAN
DYEAR=1900
DGENRE=
TTITLE0=First We Take Manhattan 1987
TTITLE1=The Hunter 1992
TTITLE2=Up Where We Belong 1982
TTITLE3=Rock You Gently 1992
TTITLE4=Shot Through The Heart 1979
TTITLE5=Don't Make Me Over 1979
TTITLE6=Ain't No Cure For Love 1987
TTITLE7=Somewhere, Sombody 1992
TTITLE8=Bird On A Wire 1987
TTITLE9=Joan Of Arc 1987
TTITLE10=Way Down Deep 1992
TTITLE11=I Know A Heartache When I See One 1979
TTITLE12=When The Feeling Comes Around 1979
TTITLE13=Come To Me 1982
TTITLE14=Ballad Of The Runaway Horse 1988
TTITLE15=Famous Blue Raincoat 1987
TTITLE16=Hard Times, Come Again No More 1979
EXTD=
EXTT0=
EXTT1=
EXTT2=
EXTT3=
EXTT4=
EXTT5=
EXTT6=
EXTT7=
EXTT8=
EXTT9=
EXTT10=
EXTT11=
EXTT12=
EXTT13=
EXTT14=
EXTT15=
EXTT16=
PLAYORDER=
